PathFileType	4	(X/Y/Z)	/Users/niels/Desktop/University/Third Semester/Perception and Action/Exam/Gymnastics Motion Tracking/Code for Gym Tracking/Analyzed Data/Webcam_Backflip/id4_2_pure_Sports2D/id4_2_pure_Sports2D_px_person00.trc
DataRate	CameraRate	NumFrames	NumMarkers	Units	OrigDataRate	OrigDataStartFrame	OrigNumFrames
29.8125	29.8125	12	22	m	29.8125	120	160
Frame#	Time	Hip			RHip			RKnee			RAnkle			RBigToe			RSmallToe			RHeel			LHip			LKnee			LAnkle			LBigToe			LSmallToe			LHeel			Neck			Head			Nose			RShoulder			RElbow			RWrist			LShoulder			LElbow			LWrist		
		X1	Y1	Z1	X2	Y2	Z2	X3	Y3	Z3	X4	Y4	Z4	X5	Y5	Z5	X6	Y6	Z6	X7	Y7	Z7	X8	Y8	Z8	X9	Y9	Z9	X10	Y10	Z10	X11	Y11	Z11	X12	Y12	Z12	X13	Y13	Z13	X14	Y14	Z14	X15	Y15	Z15	X16	Y16	Z16	X17	Y17	Z17	X18	Y18	Z18	X19	Y19	Z19	X20	Y20	Z20	X21	Y21	Z21	X22	Y22	Z22
120	4.025157232704402	0.954347553054594	-0.5818380980194943	0.0	0.9514489304829943	-0.581754270760161	0.0	0.9613037134799076	-0.6831925101100808	0.0	0.9387515357983491	-0.7903072701291418	0.0	0.9721905965778338	-0.8173407612853794	0.0	0.963377288139409	-0.8174937631784672	0.0	0.9294271109137534	-0.8082336873252663	0.0	0.9580856393598616	-0.578757872950394	0.0	0.9627301639296622	-0.682266902690258	0.0	0.9412762945140369	-0.7884292287993387	0.0	0.9779975107228862	-0.8142947807234074	0.0	0.9725066940431443	-0.8114064447813979	0.0	0.9308613489077006	-0.8031056054134007	0.0	0.9745524898869034	-0.43081385660725646	0.0	0.990562509897106	-0.36247179930268114	0.0	0.9940042542126026	-0.3984664041642152	0.0	0.9587946023569213	-0.4504427118530714	0.0	0.9596243408379193	-0.525788059464612	0.0	0.9774675457156905	-0.5951115565709936	0.0	0.9834181135505785	-0.4522662505802657	0.0	0.9929275202823492	-0.5192731911529451	0.0	1.0207037945074084	-0.5818173549639434	0.0
121	4.058700209643606	0.9553183007193843	-0.5806247231806944	0.0	0.9515774739817453	-0.5803090613229913	0.0	0.9616436236704091	-0.6824492561791315	0.0	0.9391292298616393	-0.7888595406910412	0.0	0.971948397872599	-0.8160038440690621	0.0	0.9630930027741009	-0.8160987401119554	0.0	0.9302814191116717	-0.8068779311785346	0.0	0.9595384177463964	-0.5773675690586387	0.0	0.9633483607569114	-0.6815123196310491	0.0	0.9417790789362256	-0.7869472039262413	0.0	0.9783448998405083	-0.8129908240976309	0.0	0.9728990825863161	-0.8100239982851204	0.0	0.93135451791296	-0.8017544942639475	0.0	0.9744255304283211	-0.4297433020155733	0.0	0.9907507013785887	-0.3613470225989697	0.0	0.993729742036845	-0.3970855345495257	0.0	0.9582280517276933	-0.44895064562530657	0.0	0.9578317196833502	-0.5245378680635421	0.0	0.9772866045360195	-0.5931918745776241	0.0	0.9830591896103122	-0.45099033896616175	0.0	0.9913778297894534	-0.5180645594216722	0.0	1.0185730914260478	-0.5804454860127273	0.0
122	4.092243186582809	0.9568142863060292	-0.5780285745817321	0.0	0.9517914054137888	-0.5773494322249764	0.0	0.9618904921526452	-0.6806124562823579	0.0	0.939518935250108	-0.7860906317638909	0.0	0.9714150527704092	-0.8134430846089288	0.0	0.9624321422172994	-0.8135669868754333	0.0	0.931455896032847	-0.8042060383559322	0.0	0.9619297134250823	-0.5746023594945151	0.0	0.9640914826950321	-0.6797290495458082	0.0	0.9424508548969792	-0.7839908642421453	0.0	0.9786379997347485	-0.810385200162909	0.0	0.9732974703702209	-0.8073729763284831	0.0	0.9319308362175531	-0.799016170196816	0.0	0.9743074269931206	-0.42746316263666556	0.0	0.9909687678597437	-0.3589041148015857	0.0	0.9935276165194273	-0.3943687553692102	0.0	0.9574000369454152	-0.4460267705376889	0.0	0.954573925104922	-0.5216113396442044	0.0	0.977016049690289	-0.5890989613700535	0.0	0.9825826631268996	-0.44839435409973954	0.0	0.988876872643587	-0.5152765118918192	0.0	1.0150843039039037	-0.5770778864826149	0.0
123	4.125786163522012	0.9586109173154472	-0.5743151890027437	0.0	0.9521249352138007	-0.5732661307991272	0.0	0.9620322945932408	-0.6778607392232692	0.0	0.9398961574531747	-0.7823800563742171	0.0	0.970722007586803	-0.8099120096219519	0.0	0.9615139938606626	-0.8102128327731564	0.0	0.9326442503091513	-0.8005420456111705	0.0	0.9648934152097506	-0.5708551244893227	0.0	0.9647860824104048	-0.6771160096416546	0.0	0.9431605051684935	-0.7798903548397685	0.0	0.9788809652612566	-0.8066712600048009	0.0	0.9737188550539521	-0.8036560654745423	0.0	0.9323706334447054	-0.79515245140427	0.0	0.9742148084453544	-0.4242332816710577	0.0	0.9911312905476478	-0.3554633559764971	0.0	0.9933976138834384	-0.39066841199550845	0.0	0.956514537401575	-0.44208225919594274	0.0	0.9501342304526036	-0.517160218501215	0.0	0.9765085633961967	-0.5829943770167925	0.0	0.9820275469328207	-0.4448037427773636	0.0	0.9856034875954064	-0.5110514400590892	0.0	1.0105461072218302	-0.5719187465327238	0.0
124	4.159329140461216	0.9604281810092731	-0.5698822639060936	0.0	0.9525594392493445	-0.5685390252823541	0.0	0.9620896060492439	-0.6744573611469622	0.0	0.9402020866378954	-0.7782418279461116	0.0	0.9700904432458021	-0.805766762486242	0.0	0.9605712393007483	-0.8064183284209724	0.0	0.9335362761311969	-0.796357881883247	0.0	0.9678673015969441	-0.5665733098492634	0.0	0.9652581590531387	-0.6739254565759044	0.0	0.9437441408168198	-0.7752040886717604	0.0	0.9791429154774819	-0.802238281427794	0.0	0.9742164422129491	-0.7992763162123843	0.0	0.9325263654915793	-0.7906337118160393	0.0	0.9741695603867162	-0.42037459456963705	0.0	0.9911691073095087	-0.351454594534095	0.0	0.9932853813151585	-0.3864507842321739	0.0	0.9558109638052008	-0.4375417229738074	0.0	0.9449377585094842	-0.5113691196881566	0.0	0.9755597224728778	-0.5752265051870709	0.0	0.9814427344295362	-0.44062789279449044	0.0	0.981677726069671	-0.505628142687917	0.0	1.0053829771551803	-0.5652863694385268	0.0
125	4.192872117400419	0.9619939632577635	-0.5652398271929238	0.0	0.9530408253677942	-0.5636929610732633	0.0	0.9620854374093976	-0.6707720274392714	0.0	0.9403696184630361	-0.774201892152316	0.0	0.9697039705879926	-0.801417340230118	0.0	0.9598419798682434	-0.8025672633949108	0.0	0.9339498279228918	-0.792185188917279	0.0	0.9702561148514873	-0.5622231706293123	0.0	0.9653875464749776	-0.6704775580771828	0.0	0.9440808495191806	-0.7705947819386209	0.0	0.9794944965626086	-0.79758520810748	0.0	0.9748008382197944	-0.7947491621821172	0.0	0.9323588460053748	-0.7860518930741338	0.0	0.9741648404182406	-0.4162668875218182	0.0	0.9910130051680348	-0.34735309008950727	0.0	0.9931175747093937	-0.38222102239639927	0.0	0.955464434846835	-0.4328164189223277	0.0	0.9394870313116471	-0.5044997585495125	0.0	0.9739682579765783	-0.5663802960687623	0.0	0.9808857898175485	-0.43630601345400477	0.0	0.977241227284528	-0.4994052702051396	0.0	1.0000765536016716	-0.5576753172164447	0.0
126	4.226415094339622	0.9630868551052508	-0.5609577292806156	0.0	0.9534996577022278	-0.5592791072177639	0.0	0.9619973539660058	-0.6672480081865826	0.0	0.940364859650794	-0.7707263309484819	0.0	0.9695736342015931	-0.7972906120661301	0.0	0.9594173454789918	-0.7990139302368184	0.0	0.9338756204757509	-0.7885227668398174	0.0	0.971644121329853	-0.5582953572157772	0.0	0.9651473300722536	-0.667175953123654	0.0	0.9441396295209762	-0.7666782624904959	0.0	0.979890705483522	-0.7932274197802508	0.0	0.9753671316248366	-0.7905976219012227	0.0	0.9319026704127741	-0.7820314844874142	0.0	0.9741732680810972	-0.41236683547984093	0.0	0.990612842914729	-0.3436170452199565	0.0	0.9928488079767813	-0.3784217557660314	0.0	0.9555260814043979	-0.42832943449689503	0.0	0.9342462677225973	-0.4969553099920198	0.0	0.9716722813659817	-0.5572037248179971	0.0	0.9804080663134402	-0.432266264406269	0.0	0.9725501520971754	-0.49296032857584526	0.0	0.9950770218924749	-0.5497662120478215	0.0
127	4.259958071278826	0.9635772022621983	-0.5575615299999471	0.0	0.9538730747829498	-0.5558083528110059	0.0	0.9617465551471239	-0.6643246113833402	0.0	0.9401784323545302	-0.7681584766061477	0.0	0.9695595447634955	-0.7937772759435131	0.0	0.9592177533126529	-0.7960635121975521	0.0	0.9334226109117575	-0.7857457464980803	0.0	0.9719542687457997	-0.5552379676311474	0.0	0.964585661390483	-0.6644572184811751	0.0	0.9439736322175858	-0.7638838569034573	0.0	0.9801823633595362	-0.7896401493568351	0.0	0.9757358114258521	-0.7872727337030765	0.0	0.9312615264936761	-0.7790842984246689	0.0	0.9741694770646376	-0.4091456166176067	0.0	0.9899728236459653	-0.3406386342675862	0.0	0.9924987521614862	-0.37539337079410057	0.0	0.9559330901883775	-0.4245003672268082	0.0	0.9295301024668289	-0.48925295913172817	0.0	0.968824201291379	-0.5484086229720279	0.0	0.9800204206218617	-0.42885539874748035	0.0	0.9679001725275769	-0.48687605721890437	0.0	0.9906528350820523	-0.5422768100135811	0.0
128	4.293501048218029	0.9634799900151289	-0.5553895613374658	0.0	0.9541303195277134	-0.553632597718332	0.0	0.9612566799148893	-0.6623543241895713	0.0	0.9398262038968587	-0.7666735210402362	0.0	0.9695430158342753	-0.7911874677537373	0.0	0.9591435924454239	-0.7939661056140934	0.0	0.9327535533388942	-0.7840612258163557	0.0	0.971462701196859	-0.5533394882825698	0.0	0.9638023105134627	-0.6626853834355592	0.0	0.9436888629418805	-0.7623960005042121	0.0	0.9802642455282767	-0.7871975861525317	0.0	0.9757890253716894	-0.7850742111414665	0.0	0.9306280790369496	-0.7774830608906171	0.0	0.9741370741001387	-0.40695116680488475	0.0	0.9891659441255171	-0.33870184697192335	0.0	0.9921257695256356	-0.3733875546409209	0.0	0.9565550619046274	-0.42168621431568515	0.0	0.9254778207774905	-0.48196734736075736	0.0	0.9657115196813881	-0.5405187541240525	0.0	0.9797016511214415	-0.4262899816123631	0.0	0.9634968654192586	-0.48153198479877124	0.0	0.9867892886298212	-0.5357814533981331	0.0
129	4.327044025157232	0.9629612072057804	-0.5545267191520429	0.0	0.9542705576612087	-0.5528742087952327	0.0	0.9605329280521698	-0.6615374471786296	0.0	0.9393757612031056	-0.7663175246107174	0.0	0.9695665584120484	-0.789732241052988	0.0	0.9592293791022644	-0.7929191390502912	0.0	0.9320469811069351	-0.7835327632040323	0.0	0.970600668306004	-0.5526892420273963	0.0	0.9629364255832116	-0.6620494511531746	0.0	0.9433936594308353	-0.7622157152072736	0.0	0.9801768393541807	-0.7861127920601451	0.0	0.9755597160132743	-0.7841159850417426	0.0	0.9302275300350306	-0.7772772301053015	0.0	0.9740667467719819	-0.4059212034900358	0.0	0.9883065081022444	-0.3379542496765669	0.0	0.9917488415058406	-0.37256809632292337	0.0	0.9572436565990493	-0.4201196835687942	0.0	0.9221145628709723	-0.4757138691129793	0.0	0.9626241526737287	-0.5338718789666036	0.0	0.9794321722771305	-0.4246809796953783	0.0	0.9594686491663691	-0.477097009615592	0.0	0.9832956104539202	-0.5306251192556484	0.0
130	4.360587002096436	0.9622550632380332	-0.5548846157488082	0.0	0.9543119788669833	-0.5534556713300819	0.0	0.9596801762092653	-0.6619117343730364	0.0	0.9389145762661932	-0.7670624700367603	0.0	0.9697771638664823	-0.7895152047698666	0.0	0.9596038426820325	-0.7930374120200601	0.0	0.9314499676400321	-0.7841261143918755	0.0	0.9697161894234065	-0.5532267889363163	0.0	0.9621251222962457	-0.6625353330908744	0.0	0.9431489444198916	-0.7632389877097272	0.0	0.9800428135309777	-0.7864057667825998	0.0	0.9751763544651865	-0.7843594738614761	0.0	0.9301793213456547	-0.7783623551544131	0.0	0.9739532365904187	-0.4060163242290062	0.0	0.9874843776604706	-0.3384161158102324	0.0	0.9913421180333203	-0.37299459242412203	0.0	0.9578673378711456	-0.4198710657109047	0.0	0.9194270665208353	-0.4710782654707593	0.0	0.9597836794155776	-0.5286957297424901	0.0	0.9791902952834673	-0.42407479055277253	0.0	0.9559414783246463	-0.4736961839336906	0.0	0.9800606100369592	-0.5269196504730863	0.0
131	4.394129979035639	0.9615663739982302	-0.5563237573882153	0.0	0.9543015010815086	-0.5551713440485645	0.0	0.9588389712140268	-0.6633838918862383	0.0	0.938492071196168	-0.7688069739307547	0.0	0.9702339323798133	-0.7905130945899359	0.0	0.9602982180408592	-0.7942901648636279	0.0	0.9310349190533583	-0.7857406475526678	0.0	0.9690031041179216	-0.5548095928530418	0.0	0.9614591583982505	-0.6639947651086793	0.0	0.9429631304170225	-0.7652863863976723	0.0	0.979951085701496	-0.7878951180997091	0.0	0.9747599579774088	-0.7856553988620039	0.0	0.9304200123801704	-0.7805157707241982	0.0	0.9737921945224337	-0.4071158108401496	0.0	0.9867310441786343	-0.3400218445805696	0.0	0.9909192490938251	-0.37460668909226047	0.0	0.9583323000915337	-0.420851565630238	0.0	0.9174029788328208	-0.4684640422926574	0.0	0.9573239748026817	-0.5251629976566378	0.0	0.9789315846433592	-0.4244785939996626	0.0	0.9530175600764981	-0.47154965856978637	0.0	0.9771959237021922	-0.5246274293198613	0.0
